<svg xmlns="http://www.w3.org/2000/svg" width="400" height="320" viewBox="0 0 400 320" fill="none">
  <rect width="400" height="320" fill="#f3f4f6"/>
  <path d="M120 176c14.36 0 26-11.64 26-26s-11.64-26-26-26-26 11.64-26 26 11.64 26 26 26Z" fill="#e5e7eb"/>
  <path d="M80 232c0-22.091 17.909-40 40-40h160c22.091 0 40 17.909 40 40v8H80v-8Z" fill="#e5e7eb"/>
  <rect x="180" y="92" width="140" height="88" rx="12" fill="#e5e7eb"/>
  <path d="M196 164h108c1.105 0 2-.895 2-2v-48c0-1.105-.895-2-2-2H196c-1.105 0-2 .895-2 2v48c0 1.105.895 2 2 2Z" fill="#f9fafb"/>
  <circle cx="214" cy="136" r="10" fill="#d1d5db"/>
  <path d="M196 164h108c1.105 0 2-.895 2-2v-48c0-1.105-.895-2-2-2H196c-1.105 0-2 .895-2 2v48c0 1.105.895 2 2 2Z" stroke="#e5e7eb" stroke-width="4"/>
  <path d="m223 144 18 24 22-30 20 26" stroke="#d1d5db" stroke-width="6" stroke-linecap="round" stroke-linejoin="round"/>
</svg>
